<svg class="rich-terminal" viewBox="0 0 1238 1514.0" xmlns="http://www.w3.org/2000/svg">
    <!-- Generated with Rich https://www.textualize.io -->
    <style>

    @font-face {
        font-family: "Fira Code";
        src: local("FiraCode-Regular"),
                url("https://cdnjs.cloudflare.com/ajax/libs/firacode/6.2.0/woff2/FiraCode-Regular.woff2") format("woff2"),
                url("https://cdnjs.cloudflare.com/ajax/libs/firacode/6.2.0/woff/FiraCode-Regular.woff") format("woff");
        font-style: normal;
        font-weight: 400;
    }
    @font-face {
        font-family: "Fira Code";
        src: local("FiraCode-Bold"),
                url("https://cdnjs.cloudflare.com/ajax/libs/firacode/6.2.0/woff2/FiraCode-Bold.woff2") format("woff2"),
                url("https://cdnjs.cloudflare.com/ajax/libs/firacode/6.2.0/woff/FiraCode-Bold.woff") format("woff");
        font-style: bold;
        font-weight: 700;
    }

    .terminal-1328046162-matrix {
        font-family: Fira Code, monospace;
        font-size: 20px;
        line-height: 24.4px;
        font-variant-east-asian: full-width;
    }

    .terminal-1328046162-title {
        font-size: 18px;
        font-weight: bold;
        font-family: arial;
    }

    .terminal-1328046162-r1 { fill: #c5c8c6 }
.terminal-1328046162-r2 { fill: #e3e3e3 }
.terminal-1328046162-r3 { fill: #e1e1e1 }
.terminal-1328046162-r4 { fill: #dde6ed;font-weight: bold }
.terminal-1328046162-r5 { fill: #dde6ed }
.terminal-1328046162-r6 { fill: #939393 }
.terminal-1328046162-r7 { fill: #dde8f3;font-weight: bold }
.terminal-1328046162-r8 { fill: #ddedf9 }
    </style>

    <defs>
    <clipPath id="terminal-1328046162-clip-terminal">
      <rect x="0" y="0" width="1219.0" height="1463.0" />
    </clipPath>
    <clipPath id="terminal-1328046162-line-0">
    <rect x="0" y="1.5" width="1220" height="24.65"/>
            </clipPath>
<clipPath id="terminal-1328046162-line-1">
    <rect x="0" y="25.9" width="1220" height="24.65"/>
            </clipPath>
<clipPath id="terminal-1328046162-line-2">
    <rect x="0" y="50.3" width="1220" height="24.65"/>
            </clipPath>
<clipPath id="terminal-1328046162-line-3">
    <rect x="0" y="74.7" width="1220" height="24.65"/>
            </clipPath>
<clipPath id="terminal-1328046162-line-4">
    <rect x="0" y="99.1" width="1220" height="24.65"/>
            </clipPath>
<clipPath id="terminal-1328046162-line-5">
    <rect x="0" y="123.5" width="1220" height="24.65"/>
            </clipPath>
<clipPath id="terminal-1328046162-line-6">
    <rect x="0" y="147.9" width="1220" height="24.65"/>
            </clipPath>
<clipPath id="terminal-1328046162-line-7">
    <rect x="0" y="172.3" width="1220" height="24.65"/>
            </clipPath>
<clipPath id="terminal-1328046162-line-8">
    <rect x="0" y="196.7" width="1220" height="24.65"/>
            </clipPath>
<clipPath id="terminal-1328046162-line-9">
    <rect x="0" y="221.1" width="1220" height="24.65"/>
            </clipPath>
<clipPath id="terminal-1328046162-line-10">
    <rect x="0" y="245.5" width="1220" height="24.65"/>
            </clipPath>
<clipPath id="terminal-1328046162-line-11">
    <rect x="0" y="269.9" width="1220" height="24.65"/>
            </clipPath>
<clipPath id="terminal-1328046162-line-12">
    <rect x="0" y="294.3" width="1220" height="24.65"/>
            </clipPath>
<clipPath id="terminal-1328046162-line-13">
    <rect x="0" y="318.7" width="1220" height="24.65"/>
            </clipPath>
<clipPath id="terminal-1328046162-line-14">
    <rect x="0" y="343.1" width="1220" height="24.65"/>
            </clipPath>
<clipPath id="terminal-1328046162-line-15">
    <rect x="0" y="367.5" width="1220" height="24.65"/>
            </clipPath>
<clipPath id="terminal-1328046162-line-16">
    <rect x="0" y="391.9" width="1220" height="24.65"/>
            </clipPath>
<clipPath id="terminal-1328046162-line-17">
    <rect x="0" y="416.3" width="1220" height="24.65"/>
            </clipPath>
<clipPath id="terminal-1328046162-line-18">
    <rect x="0" y="440.7" width="1220" height="24.65"/>
            </clipPath>
<clipPath id="terminal-1328046162-line-19">
    <rect x="0" y="465.1" width="1220" height="24.65"/>
            </clipPath>
<clipPath id="terminal-1328046162-line-20">
    <rect x="0" y="489.5" width="1220" height="24.65"/>
            </clipPath>
<clipPath id="terminal-1328046162-line-21">
    <rect x="0" y="513.9" width="1220" height="24.65"/>
            </clipPath>
<clipPath id="terminal-1328046162-line-22">
    <rect x="0" y="538.3" width="1220" height="24.65"/>
            </clipPath>
<clipPath id="terminal-1328046162-line-23">
    <rect x="0" y="562.7" width="1220" height="24.65"/>
            </clipPath>
<clipPath id="terminal-1328046162-line-24">
    <rect x="0" y="587.1" width="1220" height="24.65"/>
            </clipPath>
<clipPath id="terminal-1328046162-line-25">
    <rect x="0" y="611.5" width="1220" height="24.65"/>
            </clipPath>
<clipPath id="terminal-1328046162-line-26">
    <rect x="0" y="635.9" width="1220" height="24.65"/>
            </clipPath>
<clipPath id="terminal-1328046162-line-27">
    <rect x="0" y="660.3" width="1220" height="24.65"/>
            </clipPath>
<clipPath id="terminal-1328046162-line-28">
    <rect x="0" y="684.7" width="1220" height="24.65"/>
            </clipPath>
<clipPath id="terminal-1328046162-line-29">
    <rect x="0" y="709.1" width="1220" height="24.65"/>
            </clipPath>
<clipPath id="terminal-1328046162-line-30">
    <rect x="0" y="733.5" width="1220" height="24.65"/>
            </clipPath>
<clipPath id="terminal-1328046162-line-31">
    <rect x="0" y="757.9" width="1220" height="24.65"/>
            </clipPath>
<clipPath id="terminal-1328046162-line-32">
    <rect x="0" y="782.3" width="1220" height="24.65"/>
            </clipPath>
<clipPath id="terminal-1328046162-line-33">
    <rect x="0" y="806.7" width="1220" height="24.65"/>
            </clipPath>
<clipPath id="terminal-1328046162-line-34">
    <rect x="0" y="831.1" width="1220" height="24.65"/>
            </clipPath>
<clipPath id="terminal-1328046162-line-35">
    <rect x="0" y="855.5" width="1220" height="24.65"/>
            </clipPath>
<clipPath id="terminal-1328046162-line-36">
    <rect x="0" y="879.9" width="1220" height="24.65"/>
            </clipPath>
<clipPath id="terminal-1328046162-line-37">
    <rect x="0" y="904.3" width="1220" height="24.65"/>
            </clipPath>
<clipPath id="terminal-1328046162-line-38">
    <rect x="0" y="928.7" width="1220" height="24.65"/>
            </clipPath>
<clipPath id="terminal-1328046162-line-39">
    <rect x="0" y="953.1" width="1220" height="24.65"/>
            </clipPath>
<clipPath id="terminal-1328046162-line-40">
    <rect x="0" y="977.5" width="1220" height="24.65"/>
            </clipPath>
<clipPath id="terminal-1328046162-line-41">
    <rect x="0" y="1001.9" width="1220" height="24.65"/>
            </clipPath>
<clipPath id="terminal-1328046162-line-42">
    <rect x="0" y="1026.3" width="1220" height="24.65"/>
            </clipPath>
<clipPath id="terminal-1328046162-line-43">
    <rect x="0" y="1050.7" width="1220" height="24.65"/>
            </clipPath>
<clipPath id="terminal-1328046162-line-44">
    <rect x="0" y="1075.1" width="1220" height="24.65"/>
            </clipPath>
<clipPath id="terminal-1328046162-line-45">
    <rect x="0" y="1099.5" width="1220" height="24.65"/>
            </clipPath>
<clipPath id="terminal-1328046162-line-46">
    <rect x="0" y="1123.9" width="1220" height="24.65"/>
            </clipPath>
<clipPath id="terminal-1328046162-line-47">
    <rect x="0" y="1148.3" width="1220" height="24.65"/>
            </clipPath>
<clipPath id="terminal-1328046162-line-48">
    <rect x="0" y="1172.7" width="1220" height="24.65"/>
            </clipPath>
<clipPath id="terminal-1328046162-line-49">
    <rect x="0" y="1197.1" width="1220" height="24.65"/>
            </clipPath>
<clipPath id="terminal-1328046162-line-50">
    <rect x="0" y="1221.5" width="1220" height="24.65"/>
            </clipPath>
<clipPath id="terminal-1328046162-line-51">
    <rect x="0" y="1245.9" width="1220" height="24.65"/>
            </clipPath>
<clipPath id="terminal-1328046162-line-52">
    <rect x="0" y="1270.3" width="1220" height="24.65"/>
            </clipPath>
<clipPath id="terminal-1328046162-line-53">
    <rect x="0" y="1294.7" width="1220" height="24.65"/>
            </clipPath>
<clipPath id="terminal-1328046162-line-54">
    <rect x="0" y="1319.1" width="1220" height="24.65"/>
            </clipPath>
<clipPath id="terminal-1328046162-line-55">
    <rect x="0" y="1343.5" width="1220" height="24.65"/>
            </clipPath>
<clipPath id="terminal-1328046162-line-56">
    <rect x="0" y="1367.9" width="1220" height="24.65"/>
            </clipPath>
<clipPath id="terminal-1328046162-line-57">
    <rect x="0" y="1392.3" width="1220" height="24.65"/>
            </clipPath>
<clipPath id="terminal-1328046162-line-58">
    <rect x="0" y="1416.7" width="1220" height="24.65"/>
            </clipPath>
    </defs>

    <rect fill="#292929" stroke="rgba(255,255,255,0.35)" stroke-width="1" x="1" y="1" width="1236" height="1512" rx="8"/><text class="terminal-1328046162-title" fill="#c5c8c6" text-anchor="middle" x="618" y="27">OlaPilot</text>
            <g transform="translate(26,22)">
            <circle cx="0" cy="0" r="7" fill="#ff5f57"/>
            <circle cx="22" cy="0" r="7" fill="#febc2e"/>
            <circle cx="44" cy="0" r="7" fill="#28c840"/>
            </g>
        
    <g transform="translate(9, 41)" clip-path="url(#terminal-1328046162-clip-terminal)">
    <rect fill="#282828" x="0" y="1.5" width="12.2" height="24.65" shape-rendering="crispEdges"/><rect fill="#282828" x="12.2" y="1.5" width="12.2" height="24.65" shape-rendering="crispEdges"/><rect fill="#282828" x="24.4" y="1.5" width="61" height="24.65" shape-rendering="crispEdges"/><rect fill="#282828" x="85.4" y="1.5" width="12.2" height="24.65" shape-rendering="crispEdges"/><rect fill="#282828" x="97.6" y="1.5" width="451.4" height="24.65" shape-rendering="crispEdges"/><rect fill="#282828" x="549" y="1.5" width="97.6" height="24.65" shape-rendering="crispEdges"/><rect fill="#282828" x="646.6" y="1.5" width="451.4" height="24.65" shape-rendering="crispEdges"/><rect fill="#282828" x="1098" y="1.5" width="12.2" height="24.65" shape-rendering="crispEdges"/><rect fill="#282828" x="1110.2" y="1.5" width="0" height="24.65" shape-rendering="crispEdges"/><rect fill="#282828" x="1110.2" y="1.5" width="97.6" height="24.65" shape-rendering="crispEdges"/><rect fill="#282828" x="1207.8" y="1.5" width="12.2" height="24.65" shape-rendering="crispEdges"/><rect fill="#1e1e1e" x="0" y="25.9" width="0" height="24.65" shape-rendering="crispEdges"/><rect fill="#1e1e1e" x="0" y="25.9" width="1220" height="24.65" shape-rendering="crispEdges"/><rect fill="#004578" x="0" y="50.3" width="122" height="24.65" shape-rendering="crispEdges"/><rect fill="#004578" x="122" y="50.3" width="73.2" height="24.65" shape-rendering="crispEdges"/><rect fill="#004578" x="195.2" y="50.3" width="48.8" height="24.65" shape-rendering="crispEdges"/><rect fill="#004578" x="244" y="50.3" width="109.8" height="24.65" shape-rendering="crispEdges"/><rect fill="#073b61" x="353.8" y="50.3" width="866.2" height="24.65" shape-rendering="crispEdges"/><rect fill="#1e1e1e" x="0" y="74.7" width="1220" height="24.65" shape-rendering="crispEdges"/><rect fill="#004578" x="0" y="99.1" width="73.2" height="24.65" shape-rendering="crispEdges"/><rect fill="#073b61" x="73.2" y="99.1" width="1146.8" height="24.65" shape-rendering="crispEdges"/><rect fill="#1e1e1e" x="0" y="123.5" width="1220" height="24.65" shape-rendering="crispEdges"/><rect fill="#1e1e1e" x="0" y="147.9" width="1220" height="24.65" shape-rendering="crispEdges"/><rect fill="#1e1e1e" x="0" y="172.3" width="1220" height="24.65" shape-rendering="crispEdges"/><rect fill="#1e1e1e" x="0" y="196.7" width="1220" height="24.65" shape-rendering="crispEdges"/><rect fill="#1e1e1e" x="0" y="221.1" width="1220" height="24.65" shape-rendering="crispEdges"/><rect fill="#1e1e1e" x="0" y="245.5" width="1220" height="24.65" shape-rendering="crispEdges"/><rect fill="#1e1e1e" x="0" y="269.9" width="1220" height="24.65" shape-rendering="crispEdges"/><rect fill="#1e1e1e" x="0" y="294.3" width="1220" height="24.65" shape-rendering="crispEdges"/><rect fill="#1e1e1e" x="0" y="318.7" width="1220" height="24.65" shape-rendering="crispEdges"/><rect fill="#1e1e1e" x="0" y="343.1" width="1220" height="24.65" shape-rendering="crispEdges"/><rect fill="#1e1e1e" x="0" y="367.5" width="1220" height="24.65" shape-rendering="crispEdges"/><rect fill="#1e1e1e" x="0" y="391.9" width="1220" height="24.65" shape-rendering="crispEdges"/><rect fill="#1e1e1e" x="0" y="416.3" width="1220" height="24.65" shape-rendering="crispEdges"/><rect fill="#1e1e1e" x="0" y="440.7" width="1220" height="24.65" shape-rendering="crispEdges"/><rect fill="#1e1e1e" x="0" y="465.1" width="1220" height="24.65" shape-rendering="crispEdges"/><rect fill="#1e1e1e" x="0" y="489.5" width="1220" height="24.65" shape-rendering="crispEdges"/><rect fill="#1e1e1e" x="0" y="513.9" width="1220" height="24.65" shape-rendering="crispEdges"/><rect fill="#1e1e1e" x="0" y="538.3" width="1220" height="24.65" shape-rendering="crispEdges"/><rect fill="#1e1e1e" x="0" y="562.7" width="1220" height="24.65" shape-rendering="crispEdges"/><rect fill="#1e1e1e" x="0" y="587.1" width="1220" height="24.65" shape-rendering="crispEdges"/><rect fill="#1e1e1e" x="0" y="611.5" width="1220" height="24.65" shape-rendering="crispEdges"/><rect fill="#1e1e1e" x="0" y="635.9" width="1220" height="24.65" shape-rendering="crispEdges"/><rect fill="#1e1e1e" x="0" y="660.3" width="1220" height="24.65" shape-rendering="crispEdges"/><rect fill="#1e1e1e" x="0" y="684.7" width="1220" height="24.65" shape-rendering="crispEdges"/><rect fill="#1e1e1e" x="0" y="709.1" width="1220" height="24.65" shape-rendering="crispEdges"/><rect fill="#1e1e1e" x="0" y="733.5" width="1220" height="24.65" shape-rendering="crispEdges"/><rect fill="#1e1e1e" x="0" y="757.9" width="1220" height="24.65" shape-rendering="crispEdges"/><rect fill="#1e1e1e" x="0" y="782.3" width="1220" height="24.65" shape-rendering="crispEdges"/><rect fill="#1e1e1e" x="0" y="806.7" width="1220" height="24.65" shape-rendering="crispEdges"/><rect fill="#1e1e1e" x="0" y="831.1" width="1220" height="24.65" shape-rendering="crispEdges"/><rect fill="#1e1e1e" x="0" y="855.5" width="1220" height="24.65" shape-rendering="crispEdges"/><rect fill="#1e1e1e" x="0" y="879.9" width="1220" height="24.65" shape-rendering="crispEdges"/><rect fill="#1e1e1e" x="0" y="904.3" width="1220" height="24.65" shape-rendering="crispEdges"/><rect fill="#1e1e1e" x="0" y="928.7" width="1220" height="24.65" shape-rendering="crispEdges"/><rect fill="#1e1e1e" x="0" y="953.1" width="1220" height="24.65" shape-rendering="crispEdges"/><rect fill="#1e1e1e" x="0" y="977.5" width="1220" height="24.65" shape-rendering="crispEdges"/><rect fill="#1e1e1e" x="0" y="1001.9" width="1220" height="24.65" shape-rendering="crispEdges"/><rect fill="#1e1e1e" x="0" y="1026.3" width="1220" height="24.65" shape-rendering="crispEdges"/><rect fill="#1e1e1e" x="0" y="1050.7" width="1220" height="24.65" shape-rendering="crispEdges"/><rect fill="#1e1e1e" x="0" y="1075.1" width="1220" height="24.65" shape-rendering="crispEdges"/><rect fill="#1e1e1e" x="0" y="1099.5" width="1220" height="24.65" shape-rendering="crispEdges"/><rect fill="#1e1e1e" x="0" y="1123.9" width="1220" height="24.65" shape-rendering="crispEdges"/><rect fill="#1e1e1e" x="0" y="1148.3" width="1220" height="24.65" shape-rendering="crispEdges"/><rect fill="#1e1e1e" x="0" y="1172.7" width="1220" height="24.65" shape-rendering="crispEdges"/><rect fill="#1e1e1e" x="0" y="1197.1" width="1220" height="24.65" shape-rendering="crispEdges"/><rect fill="#1e1e1e" x="0" y="1221.5" width="1220" height="24.65" shape-rendering="crispEdges"/><rect fill="#1e1e1e" x="0" y="1245.9" width="1220" height="24.65" shape-rendering="crispEdges"/><rect fill="#1e1e1e" x="0" y="1270.3" width="1220" height="24.65" shape-rendering="crispEdges"/><rect fill="#1e1e1e" x="0" y="1294.7" width="1220" height="24.65" shape-rendering="crispEdges"/><rect fill="#1e1e1e" x="0" y="1319.1" width="1220" height="24.65" shape-rendering="crispEdges"/><rect fill="#1e1e1e" x="0" y="1343.5" width="1220" height="24.65" shape-rendering="crispEdges"/><rect fill="#1e1e1e" x="0" y="1367.9" width="1220" height="24.65" shape-rendering="crispEdges"/><rect fill="#1e1e1e" x="0" y="1392.3" width="1220" height="24.65" shape-rendering="crispEdges"/><rect fill="#1e1e1e" x="0" y="1416.7" width="610" height="24.65" shape-rendering="crispEdges"/><rect fill="#1e1e1e" x="610" y="1416.7" width="0" height="24.65" shape-rendering="crispEdges"/><rect fill="#1e1e1e" x="610" y="1416.7" width="610" height="24.65" shape-rendering="crispEdges"/><rect fill="#0053aa" x="0" y="1441.1" width="36.6" height="24.65" shape-rendering="crispEdges"/><rect fill="#0178d4" x="36.6" y="1441.1" width="219.6" height="24.65" shape-rendering="crispEdges"/><rect fill="#0053aa" x="256.2" y="1441.1" width="36.6" height="24.65" shape-rendering="crispEdges"/><rect fill="#0178d4" x="292.8" y="1441.1" width="207.4" height="24.65" shape-rendering="crispEdges"/><rect fill="#0053aa" x="500.2" y="1441.1" width="36.6" height="24.65" shape-rendering="crispEdges"/><rect fill="#0178d4" x="536.8" y="1441.1" width="85.4" height="24.65" shape-rendering="crispEdges"/><rect fill="#0053aa" x="622.2" y="1441.1" width="36.6" height="24.65" shape-rendering="crispEdges"/><rect fill="#0178d4" x="658.8" y="1441.1" width="158.6" height="24.65" shape-rendering="crispEdges"/><rect fill="#0053aa" x="817.4" y="1441.1" width="36.6" height="24.65" shape-rendering="crispEdges"/><rect fill="#0178d4" x="854" y="1441.1" width="158.6" height="24.65" shape-rendering="crispEdges"/><rect fill="#0053aa" x="1012.6" y="1441.1" width="36.6" height="24.65" shape-rendering="crispEdges"/><rect fill="#0178d4" x="1049.2" y="1441.1" width="158.6" height="24.65" shape-rendering="crispEdges"/><rect fill="#0178d4" x="1207.8" y="1441.1" width="12.2" height="24.65" shape-rendering="crispEdges"/>
    <g class="terminal-1328046162-matrix">
    <text class="terminal-1328046162-r2" x="12.2" y="20" textLength="12.2" clip-path="url(#terminal-1328046162-line-0)">⭘</text><text class="terminal-1328046162-r2" x="549" y="20" textLength="97.6" clip-path="url(#terminal-1328046162-line-0)">OlaPilot</text><text class="terminal-1328046162-r1" x="1220" y="20" textLength="12.2" clip-path="url(#terminal-1328046162-line-0)">
</text><text class="terminal-1328046162-r1" x="1220" y="44.4" textLength="12.2" clip-path="url(#terminal-1328046162-line-1)">
</text><text class="terminal-1328046162-r4" x="0" y="68.8" textLength="122" clip-path="url(#terminal-1328046162-line-2)">&#160;universe&#160;</text><text class="terminal-1328046162-r4" x="122" y="68.8" textLength="73.2" clip-path="url(#terminal-1328046162-line-2)">&#160;base&#160;</text><text class="terminal-1328046162-r4" x="195.2" y="68.8" textLength="48.8" clip-path="url(#terminal-1328046162-line-2)">&#160;ch&#160;</text><text class="terminal-1328046162-r4" x="244" y="68.8" textLength="109.8" clip-path="url(#terminal-1328046162-line-2)">&#160;fixture&#160;</text><text class="terminal-1328046162-r1" x="1220" y="68.8" textLength="12.2" clip-path="url(#terminal-1328046162-line-2)">
</text><text class="terminal-1328046162-r1" x="1220" y="93.2" textLength="12.2" clip-path="url(#terminal-1328046162-line-3)">
</text><text class="terminal-1328046162-r4" x="0" y="117.6" textLength="73.2" clip-path="url(#terminal-1328046162-line-4)">&#160;name&#160;</text><text class="terminal-1328046162-r1" x="1220" y="117.6" textLength="12.2" clip-path="url(#terminal-1328046162-line-4)">
</text><text class="terminal-1328046162-r1" x="1220" y="142" textLength="12.2" clip-path="url(#terminal-1328046162-line-5)">
</text><text class="terminal-1328046162-r1" x="1220" y="166.4" textLength="12.2" clip-path="url(#terminal-1328046162-line-6)">
</text><text class="terminal-1328046162-r1" x="1220" y="190.8" textLength="12.2" clip-path="url(#terminal-1328046162-line-7)">
</text><text class="terminal-1328046162-r1" x="1220" y="215.2" textLength="12.2" clip-path="url(#terminal-1328046162-line-8)">
</text><text class="terminal-1328046162-r1" x="1220" y="239.6" textLength="12.2" clip-path="url(#terminal-1328046162-line-9)">
</text><text class="terminal-1328046162-r1" x="1220" y="264" textLength="12.2" clip-path="url(#terminal-1328046162-line-10)">
</text><text class="terminal-1328046162-r1" x="1220" y="288.4" textLength="12.2" clip-path="url(#terminal-1328046162-line-11)">
</text><text class="terminal-1328046162-r1" x="1220" y="312.8" textLength="12.2" clip-path="url(#terminal-1328046162-line-12)">
</text><text class="terminal-1328046162-r1" x="1220" y="337.2" textLength="12.2" clip-path="url(#terminal-1328046162-line-13)">
</text><text class="terminal-1328046162-r1" x="1220" y="361.6" textLength="12.2" clip-path="url(#terminal-1328046162-line-14)">
</text><text class="terminal-1328046162-r1" x="1220" y="386" textLength="12.2" clip-path="url(#terminal-1328046162-line-15)">
</text><text class="terminal-1328046162-r1" x="1220" y="410.4" textLength="12.2" clip-path="url(#terminal-1328046162-line-16)">
</text><text class="terminal-1328046162-r1" x="1220" y="434.8" textLength="12.2" clip-path="url(#terminal-1328046162-line-17)">
</text><text class="terminal-1328046162-r1" x="1220" y="459.2" textLength="12.2" clip-path="url(#terminal-1328046162-line-18)">
</text><text class="terminal-1328046162-r1" x="1220" y="483.6" textLength="12.2" clip-path="url(#terminal-1328046162-line-19)">
</text><text class="terminal-1328046162-r1" x="1220" y="508" textLength="12.2" clip-path="url(#terminal-1328046162-line-20)">
</text><text class="terminal-1328046162-r1" x="1220" y="532.4" textLength="12.2" clip-path="url(#terminal-1328046162-line-21)">
</text><text class="terminal-1328046162-r1" x="1220" y="556.8" textLength="12.2" clip-path="url(#terminal-1328046162-line-22)">
</text><text class="terminal-1328046162-r1" x="1220" y="581.2" textLength="12.2" clip-path="url(#terminal-1328046162-line-23)">
</text><text class="terminal-1328046162-r1" x="1220" y="605.6" textLength="12.2" clip-path="url(#terminal-1328046162-line-24)">
</text><text class="terminal-1328046162-r1" x="1220" y="630" textLength="12.2" clip-path="url(#terminal-1328046162-line-25)">
</text><text class="terminal-1328046162-r1" x="1220" y="654.4" textLength="12.2" clip-path="url(#terminal-1328046162-line-26)">
</text><text class="terminal-1328046162-r1" x="1220" y="678.8" textLength="12.2" clip-path="url(#terminal-1328046162-line-27)">
</text><text class="terminal-1328046162-r1" x="1220" y="703.2" textLength="12.2" clip-path="url(#terminal-1328046162-line-28)">
</text><text class="terminal-1328046162-r1" x="1220" y="727.6" textLength="12.2" clip-path="url(#terminal-1328046162-line-29)">
</text><text class="terminal-1328046162-r1" x="1220" y="752" textLength="12.2" clip-path="url(#terminal-1328046162-line-30)">
</text><text class="terminal-1328046162-r1" x="1220" y="776.4" textLength="12.2" clip-path="url(#terminal-1328046162-line-31)">
</text><text class="terminal-1328046162-r1" x="1220" y="800.8" textLength="12.2" clip-path="url(#terminal-1328046162-line-32)">
</text><text class="terminal-1328046162-r1" x="1220" y="825.2" textLength="12.2" clip-path="url(#terminal-1328046162-line-33)">
</text><text class="terminal-1328046162-r1" x="1220" y="849.6" textLength="12.2" clip-path="url(#terminal-1328046162-line-34)">
</text><text class="terminal-1328046162-r1" x="1220" y="874" textLength="12.2" clip-path="url(#terminal-1328046162-line-35)">
</text><text class="terminal-1328046162-r1" x="1220" y="898.4" textLength="12.2" clip-path="url(#terminal-1328046162-line-36)">
</text><text class="terminal-1328046162-r1" x="1220" y="922.8" textLength="12.2" clip-path="url(#terminal-1328046162-line-37)">
</text><text class="terminal-1328046162-r1" x="1220" y="947.2" textLength="12.2" clip-path="url(#terminal-1328046162-line-38)">
</text><text class="terminal-1328046162-r1" x="1220" y="971.6" textLength="12.2" clip-path="url(#terminal-1328046162-line-39)">
</text><text class="terminal-1328046162-r1" x="1220" y="996" textLength="12.2" clip-path="url(#terminal-1328046162-line-40)">
</text><text class="terminal-1328046162-r1" x="1220" y="1020.4" textLength="12.2" clip-path="url(#terminal-1328046162-line-41)">
</text><text class="terminal-1328046162-r1" x="1220" y="1044.8" textLength="12.2" clip-path="url(#terminal-1328046162-line-42)">
</text><text class="terminal-1328046162-r1" x="1220" y="1069.2" textLength="12.2" clip-path="url(#terminal-1328046162-line-43)">
</text><text class="terminal-1328046162-r1" x="1220" y="1093.6" textLength="12.2" clip-path="url(#terminal-1328046162-line-44)">
</text><text class="terminal-1328046162-r1" x="1220" y="1118" textLength="12.2" clip-path="url(#terminal-1328046162-line-45)">
</text><text class="terminal-1328046162-r1" x="1220" y="1142.4" textLength="12.2" clip-path="url(#terminal-1328046162-line-46)">
</text><text class="terminal-1328046162-r1" x="1220" y="1166.8" textLength="12.2" clip-path="url(#terminal-1328046162-line-47)">
</text><text class="terminal-1328046162-r1" x="1220" y="1191.2" textLength="12.2" clip-path="url(#terminal-1328046162-line-48)">
</text><text class="terminal-1328046162-r1" x="1220" y="1215.6" textLength="12.2" clip-path="url(#terminal-1328046162-line-49)">
</text><text class="terminal-1328046162-r1" x="1220" y="1240" textLength="12.2" clip-path="url(#terminal-1328046162-line-50)">
</text><text class="terminal-1328046162-r1" x="1220" y="1264.4" textLength="12.2" clip-path="url(#terminal-1328046162-line-51)">
</text><text class="terminal-1328046162-r1" x="1220" y="1288.8" textLength="12.2" clip-path="url(#terminal-1328046162-line-52)">
</text><text class="terminal-1328046162-r1" x="1220" y="1313.2" textLength="12.2" clip-path="url(#terminal-1328046162-line-53)">
</text><text class="terminal-1328046162-r1" x="1220" y="1337.6" textLength="12.2" clip-path="url(#terminal-1328046162-line-54)">
</text><text class="terminal-1328046162-r1" x="1220" y="1362" textLength="12.2" clip-path="url(#terminal-1328046162-line-55)">
</text><text class="terminal-1328046162-r1" x="1220" y="1386.4" textLength="12.2" clip-path="url(#terminal-1328046162-line-56)">
</text><text class="terminal-1328046162-r1" x="1220" y="1410.8" textLength="12.2" clip-path="url(#terminal-1328046162-line-57)">
</text><text class="terminal-1328046162-r1" x="1220" y="1435.2" textLength="12.2" clip-path="url(#terminal-1328046162-line-58)">
</text><text class="terminal-1328046162-r7" x="0" y="1459.6" textLength="36.6" clip-path="url(#terminal-1328046162-line-59)">&#160;D&#160;</text><text class="terminal-1328046162-r8" x="36.6" y="1459.6" textLength="219.6" clip-path="url(#terminal-1328046162-line-59)">&#160;Toggle&#160;dark&#160;mode&#160;</text><text class="terminal-1328046162-r7" x="256.2" y="1459.6" textLength="36.6" clip-path="url(#terminal-1328046162-line-59)">&#160;B&#160;</text><text class="terminal-1328046162-r8" x="292.8" y="1459.6" textLength="207.4" clip-path="url(#terminal-1328046162-line-59)">&#160;Toggle&#160;blackout&#160;</text><text class="terminal-1328046162-r7" x="500.2" y="1459.6" textLength="36.6" clip-path="url(#terminal-1328046162-line-59)">&#160;Q&#160;</text><text class="terminal-1328046162-r8" x="536.8" y="1459.6" textLength="85.4" clip-path="url(#terminal-1328046162-line-59)">&#160;Quit?&#160;</text><text class="terminal-1328046162-r7" x="622.2" y="1459.6" textLength="36.6" clip-path="url(#terminal-1328046162-line-59)">&#160;S&#160;</text><text class="terminal-1328046162-r8" x="658.8" y="1459.6" textLength="158.6" clip-path="url(#terminal-1328046162-line-59)">&#160;Save&#160;preset&#160;</text><text class="terminal-1328046162-r7" x="817.4" y="1459.6" textLength="36.6" clip-path="url(#terminal-1328046162-line-59)">&#160;L&#160;</text><text class="terminal-1328046162-r8" x="854" y="1459.6" textLength="158.6" clip-path="url(#terminal-1328046162-line-59)">&#160;Load&#160;preset&#160;</text><text class="terminal-1328046162-r7" x="1012.6" y="1459.6" textLength="36.6" clip-path="url(#terminal-1328046162-line-59)">&#160;F&#160;</text><text class="terminal-1328046162-r8" x="1049.2" y="1459.6" textLength="158.6" clip-path="url(#terminal-1328046162-line-59)">&#160;Add&#160;fixture&#160;</text>
    </g>
    </g>
</svg>
