<svg class="rich-terminal" viewBox="0 0 1482 1026.0" xmlns="http://www.w3.org/2000/svg">
    <!-- Generated with Rich https://www.textualize.io -->
    <style>

    @font-face {
        font-family: "Fira Code";
        src: local("FiraCode-Regular"),
                url("https://cdnjs.cloudflare.com/ajax/libs/firacode/6.2.0/woff2/FiraCode-Regular.woff2") format("woff2"),
                url("https://cdnjs.cloudflare.com/ajax/libs/firacode/6.2.0/woff/FiraCode-Regular.woff") format("woff");
        font-style: normal;
        font-weight: 400;
    }
    @font-face {
        font-family: "Fira Code";
        src: local("FiraCode-Bold"),
                url("https://cdnjs.cloudflare.com/ajax/libs/firacode/6.2.0/woff2/FiraCode-Bold.woff2") format("woff2"),
                url("https://cdnjs.cloudflare.com/ajax/libs/firacode/6.2.0/woff/FiraCode-Bold.woff") format("woff");
        font-style: bold;
        font-weight: 700;
    }

    .terminal-1864339272-matrix {
        font-family: Fira Code, monospace;
        font-size: 20px;
        line-height: 24.4px;
        font-variant-east-asian: full-width;
    }

    .terminal-1864339272-title {
        font-size: 18px;
        font-weight: bold;
        font-family: arial;
    }

    .terminal-1864339272-r1 { fill: #e0e0e0 }
.terminal-1864339272-r2 { fill: #656565 }
.terminal-1864339272-r3 { fill: #c5c8c6 }
.terminal-1864339272-r4 { fill: #646464 }
.terminal-1864339272-r5 { fill: #ffff00 }
.terminal-1864339272-r6 { fill: #636669;font-weight: bold }
.terminal-1864339272-r7 { fill: #e1e1e1 }
.terminal-1864339272-r8 { fill: #636669 }
.terminal-1864339272-r9 { fill: #808080 }
.terminal-1864339272-r10 { fill: #323232 }
.terminal-1864339272-r11 { fill: #b93c5b }
.terminal-1864339272-r12 { fill: #5c5c5c }
.terminal-1864339272-r13 { fill: #507bb3 }
.terminal-1864339272-r14 { fill: #454a50 }
.terminal-1864339272-r15 { fill: #dde6ed;font-weight: bold }
.terminal-1864339272-r16 { fill: #e2e3e3;font-weight: bold }
.terminal-1864339272-r17 { fill: #001541 }
.terminal-1864339272-r18 { fill: #000000 }
.terminal-1864339272-r19 { fill: #454545 }
.terminal-1864339272-r20 { fill: #63676c;font-weight: bold }
.terminal-1864339272-r21 { fill: #63696e }
    </style>

    <defs>
    <clipPath id="terminal-1864339272-clip-terminal">
      <rect x="0" y="0" width="1463.0" height="975.0" />
    </clipPath>
    <clipPath id="terminal-1864339272-line-0">
    <rect x="0" y="1.5" width="1464" height="24.65"/>
            </clipPath>
<clipPath id="terminal-1864339272-line-1">
    <rect x="0" y="25.9" width="1464" height="24.65"/>
            </clipPath>
<clipPath id="terminal-1864339272-line-2">
    <rect x="0" y="50.3" width="1464" height="24.65"/>
            </clipPath>
<clipPath id="terminal-1864339272-line-3">
    <rect x="0" y="74.7" width="1464" height="24.65"/>
            </clipPath>
<clipPath id="terminal-1864339272-line-4">
    <rect x="0" y="99.1" width="1464" height="24.65"/>
            </clipPath>
<clipPath id="terminal-1864339272-line-5">
    <rect x="0" y="123.5" width="1464" height="24.65"/>
            </clipPath>
<clipPath id="terminal-1864339272-line-6">
    <rect x="0" y="147.9" width="1464" height="24.65"/>
            </clipPath>
<clipPath id="terminal-1864339272-line-7">
    <rect x="0" y="172.3" width="1464" height="24.65"/>
            </clipPath>
<clipPath id="terminal-1864339272-line-8">
    <rect x="0" y="196.7" width="1464" height="24.65"/>
            </clipPath>
<clipPath id="terminal-1864339272-line-9">
    <rect x="0" y="221.1" width="1464" height="24.65"/>
            </clipPath>
<clipPath id="terminal-1864339272-line-10">
    <rect x="0" y="245.5" width="1464" height="24.65"/>
            </clipPath>
<clipPath id="terminal-1864339272-line-11">
    <rect x="0" y="269.9" width="1464" height="24.65"/>
            </clipPath>
<clipPath id="terminal-1864339272-line-12">
    <rect x="0" y="294.3" width="1464" height="24.65"/>
            </clipPath>
<clipPath id="terminal-1864339272-line-13">
    <rect x="0" y="318.7" width="1464" height="24.65"/>
            </clipPath>
<clipPath id="terminal-1864339272-line-14">
    <rect x="0" y="343.1" width="1464" height="24.65"/>
            </clipPath>
<clipPath id="terminal-1864339272-line-15">
    <rect x="0" y="367.5" width="1464" height="24.65"/>
            </clipPath>
<clipPath id="terminal-1864339272-line-16">
    <rect x="0" y="391.9" width="1464" height="24.65"/>
            </clipPath>
<clipPath id="terminal-1864339272-line-17">
    <rect x="0" y="416.3" width="1464" height="24.65"/>
            </clipPath>
<clipPath id="terminal-1864339272-line-18">
    <rect x="0" y="440.7" width="1464" height="24.65"/>
            </clipPath>
<clipPath id="terminal-1864339272-line-19">
    <rect x="0" y="465.1" width="1464" height="24.65"/>
            </clipPath>
<clipPath id="terminal-1864339272-line-20">
    <rect x="0" y="489.5" width="1464" height="24.65"/>
            </clipPath>
<clipPath id="terminal-1864339272-line-21">
    <rect x="0" y="513.9" width="1464" height="24.65"/>
            </clipPath>
<clipPath id="terminal-1864339272-line-22">
    <rect x="0" y="538.3" width="1464" height="24.65"/>
            </clipPath>
<clipPath id="terminal-1864339272-line-23">
    <rect x="0" y="562.7" width="1464" height="24.65"/>
            </clipPath>
<clipPath id="terminal-1864339272-line-24">
    <rect x="0" y="587.1" width="1464" height="24.65"/>
            </clipPath>
<clipPath id="terminal-1864339272-line-25">
    <rect x="0" y="611.5" width="1464" height="24.65"/>
            </clipPath>
<clipPath id="terminal-1864339272-line-26">
    <rect x="0" y="635.9" width="1464" height="24.65"/>
            </clipPath>
<clipPath id="terminal-1864339272-line-27">
    <rect x="0" y="660.3" width="1464" height="24.65"/>
            </clipPath>
<clipPath id="terminal-1864339272-line-28">
    <rect x="0" y="684.7" width="1464" height="24.65"/>
            </clipPath>
<clipPath id="terminal-1864339272-line-29">
    <rect x="0" y="709.1" width="1464" height="24.65"/>
            </clipPath>
<clipPath id="terminal-1864339272-line-30">
    <rect x="0" y="733.5" width="1464" height="24.65"/>
            </clipPath>
<clipPath id="terminal-1864339272-line-31">
    <rect x="0" y="757.9" width="1464" height="24.65"/>
            </clipPath>
<clipPath id="terminal-1864339272-line-32">
    <rect x="0" y="782.3" width="1464" height="24.65"/>
            </clipPath>
<clipPath id="terminal-1864339272-line-33">
    <rect x="0" y="806.7" width="1464" height="24.65"/>
            </clipPath>
<clipPath id="terminal-1864339272-line-34">
    <rect x="0" y="831.1" width="1464" height="24.65"/>
            </clipPath>
<clipPath id="terminal-1864339272-line-35">
    <rect x="0" y="855.5" width="1464" height="24.65"/>
            </clipPath>
<clipPath id="terminal-1864339272-line-36">
    <rect x="0" y="879.9" width="1464" height="24.65"/>
            </clipPath>
<clipPath id="terminal-1864339272-line-37">
    <rect x="0" y="904.3" width="1464" height="24.65"/>
            </clipPath>
<clipPath id="terminal-1864339272-line-38">
    <rect x="0" y="928.7" width="1464" height="24.65"/>
            </clipPath>
    </defs>

    <rect fill="#292929" stroke="rgba(255,255,255,0.35)" stroke-width="1" x="1" y="1" width="1480" height="1024" rx="8"/><text class="terminal-1864339272-title" fill="#c5c8c6" text-anchor="middle" x="740" y="27">OlaPilot</text>
            <g transform="translate(26,22)">
            <circle cx="0" cy="0" r="7" fill="#ff5f57"/>
            <circle cx="22" cy="0" r="7" fill="#febc2e"/>
            <circle cx="44" cy="0" r="7" fill="#28c840"/>
            </g>
        
    <g transform="translate(9, 41)" clip-path="url(#terminal-1864339272-clip-terminal)">
    <rect fill="#1a1a1a" x="0" y="1.5" width="12.2" height="24.65" shape-rendering="crispEdges"/><rect fill="#1a1a1a" x="12.2" y="1.5" width="12.2" height="24.65" shape-rendering="crispEdges"/><rect fill="#1a1a1a" x="24.4" y="1.5" width="61" height="24.65" shape-rendering="crispEdges"/><rect fill="#1a1a1a" x="85.4" y="1.5" width="12.2" height="24.65" shape-rendering="crispEdges"/><rect fill="#1a1a1a" x="97.6" y="1.5" width="573.4" height="24.65" shape-rendering="crispEdges"/><rect fill="#1a1a1a" x="671" y="1.5" width="97.6" height="24.65" shape-rendering="crispEdges"/><rect fill="#1a1a1a" x="768.6" y="1.5" width="573.4" height="24.65" shape-rendering="crispEdges"/><rect fill="#1a1a1a" x="1342" y="1.5" width="12.2" height="24.65" shape-rendering="crispEdges"/><rect fill="#1a1a1a" x="1354.2" y="1.5" width="0" height="24.65" shape-rendering="crispEdges"/><rect fill="#1a1a1a" x="1354.2" y="1.5" width="97.6" height="24.65" shape-rendering="crispEdges"/><rect fill="#1a1a1a" x="1451.8" y="1.5" width="12.2" height="24.65" shape-rendering="crispEdges"/><rect fill="#161616" x="0" y="25.9" width="61" height="24.65" shape-rendering="crispEdges"/><rect fill="#161616" x="61" y="25.9" width="1403" height="24.65" shape-rendering="crispEdges"/><rect fill="#161616" x="0" y="50.3" width="1464" height="24.65" shape-rendering="crispEdges"/><rect fill="#161616" x="0" y="74.7" width="1464" height="24.65" shape-rendering="crispEdges"/><rect fill="#161616" x="0" y="99.1" width="1464" height="24.65" shape-rendering="crispEdges"/><rect fill="#161616" x="0" y="123.5" width="1464" height="24.65" shape-rendering="crispEdges"/><rect fill="#161616" x="0" y="147.9" width="1464" height="24.65" shape-rendering="crispEdges"/><rect fill="#161616" x="0" y="172.3" width="1464" height="24.65" shape-rendering="crispEdges"/><rect fill="#161616" x="0" y="196.7" width="1464" height="24.65" shape-rendering="crispEdges"/><rect fill="#161616" x="0" y="221.1" width="1464" height="24.65" shape-rendering="crispEdges"/><rect fill="#161616" x="0" y="245.5" width="1464" height="24.65" shape-rendering="crispEdges"/><rect fill="#161616" x="0" y="269.9" width="1464" height="24.65" shape-rendering="crispEdges"/><rect fill="#161616" x="0" y="294.3" width="1464" height="24.65" shape-rendering="crispEdges"/><rect fill="#161616" x="0" y="318.7" width="1464" height="24.65" shape-rendering="crispEdges"/><rect fill="#161616" x="0" y="343.1" width="183" height="24.65" shape-rendering="crispEdges"/><rect fill="#1e1e1e" x="183" y="343.1" width="12.2" height="24.65" shape-rendering="crispEdges"/><rect fill="#1e1e1e" x="195.2" y="343.1" width="12.2" height="24.65" shape-rendering="crispEdges"/><rect fill="#1e1e1e" x="207.4" y="343.1" width="134.2" height="24.65" shape-rendering="crispEdges"/><rect fill="#1e1e1e" x="341.6" y="343.1" width="927.2" height="24.65" shape-rendering="crispEdges"/><rect fill="#1e1e1e" x="1268.8" y="343.1" width="12.2" height="24.65" shape-rendering="crispEdges"/><rect fill="#161616" x="1281" y="343.1" width="183" height="24.65" shape-rendering="crispEdges"/><rect fill="#0a263a" x="0" y="367.5" width="122" height="24.65" shape-rendering="crispEdges"/><rect fill="#0a263a" x="122" y="367.5" width="61" height="24.65" shape-rendering="crispEdges"/><rect fill="#1e1e1e" x="183" y="367.5" width="12.2" height="24.65" shape-rendering="crispEdges"/><rect fill="#1e1e1e" x="195.2" y="367.5" width="12.2" height="24.65" shape-rendering="crispEdges"/><rect fill="#1e1e1e" x="207.4" y="367.5" width="158.6" height="24.65" shape-rendering="crispEdges"/><rect fill="#1e1e1e" x="366" y="367.5" width="97.6" height="24.65" shape-rendering="crispEdges"/><rect fill="#1e1e1e" x="463.6" y="367.5" width="207.4" height="24.65" shape-rendering="crispEdges"/><rect fill="#1e1e1e" x="671" y="367.5" width="585.6" height="24.65" shape-rendering="crispEdges"/><rect fill="#1e1e1e" x="1256.6" y="367.5" width="12.2" height="24.65" shape-rendering="crispEdges"/><rect fill="#1e1e1e" x="1268.8" y="367.5" width="12.2" height="24.65" shape-rendering="crispEdges"/><rect fill="#0d2231" x="1281" y="367.5" width="183" height="24.65" shape-rendering="crispEdges"/><rect fill="#161616" x="0" y="391.9" width="122" height="24.65" shape-rendering="crispEdges"/><rect fill="#161616" x="122" y="391.9" width="61" height="24.65" shape-rendering="crispEdges"/><rect fill="#1e1e1e" x="183" y="391.9" width="12.2" height="24.65" shape-rendering="crispEdges"/><rect fill="#1e1e1e" x="195.2" y="391.9" width="12.2" height="24.65" shape-rendering="crispEdges"/><rect fill="#1e1e1e" x="207.4" y="391.9" width="36.6" height="24.65" shape-rendering="crispEdges"/><rect fill="#1e1e1e" x="244" y="391.9" width="219.6" height="24.65" shape-rendering="crispEdges"/><rect fill="#1e1e1e" x="463.6" y="391.9" width="73.2" height="24.65" shape-rendering="crispEdges"/><rect fill="#1e1e1e" x="536.8" y="391.9" width="12.2" height="24.65" shape-rendering="crispEdges"/><rect fill="#1e1e1e" x="549" y="391.9" width="12.2" height="24.65" shape-rendering="crispEdges"/><rect fill="#1e1e1e" x="561.2" y="391.9" width="390.4" height="24.65" shape-rendering="crispEdges"/><rect fill="#1e1e1e" x="951.6" y="391.9" width="12.2" height="24.65" shape-rendering="crispEdges"/><rect fill="#1e1e1e" x="963.8" y="391.9" width="36.6" height="24.65" shape-rendering="crispEdges"/><rect fill="#1e1e1e" x="1000.4" y="391.9" width="48.8" height="24.65" shape-rendering="crispEdges"/><rect fill="#1e1e1e" x="1049.2" y="391.9" width="24.4" height="24.65" shape-rendering="crispEdges"/><rect fill="#1e1e1e" x="1073.6" y="391.9" width="24.4" height="24.65" shape-rendering="crispEdges"/><rect fill="#1e1e1e" x="1098" y="391.9" width="73.2" height="24.65" shape-rendering="crispEdges"/><rect fill="#1e1e1e" x="1171.2" y="391.9" width="12.2" height="24.65" shape-rendering="crispEdges"/><rect fill="#1e1e1e" x="1183.4" y="391.9" width="73.2" height="24.65" shape-rendering="crispEdges"/><rect fill="#1e1e1e" x="1256.6" y="391.9" width="12.2" height="24.65" shape-rendering="crispEdges"/><rect fill="#1e1e1e" x="1268.8" y="391.9" width="12.2" height="24.65" shape-rendering="crispEdges"/><rect fill="#161616" x="1281" y="391.9" width="183" height="24.65" shape-rendering="crispEdges"/><rect fill="#161616" x="0" y="416.3" width="183" height="24.65" shape-rendering="crispEdges"/><rect fill="#1e1e1e" x="183" y="416.3" width="12.2" height="24.65" shape-rendering="crispEdges"/><rect fill="#1e1e1e" x="195.2" y="416.3" width="12.2" height="24.65" shape-rendering="crispEdges"/><rect fill="#1e1e1e" x="207.4" y="416.3" width="61" height="24.65" shape-rendering="crispEdges"/><rect fill="#1e1e1e" x="268.4" y="416.3" width="195.2" height="24.65" shape-rendering="crispEdges"/><rect fill="#1e1e1e" x="463.6" y="416.3" width="73.2" height="24.65" shape-rendering="crispEdges"/><rect fill="#1e1e1e" x="536.8" y="416.3" width="12.2" height="24.65" shape-rendering="crispEdges"/><rect fill="#1e1e1e" x="549" y="416.3" width="12.2" height="24.65" shape-rendering="crispEdges"/><rect fill="#1e1e1e" x="561.2" y="416.3" width="195.2" height="24.65" shape-rendering="crispEdges"/><rect fill="#1e1e1e" x="756.4" y="416.3" width="12.2" height="24.65" shape-rendering="crispEdges"/><rect fill="#1e1e1e" x="768.6" y="416.3" width="183" height="24.65" shape-rendering="crispEdges"/><rect fill="#1e1e1e" x="951.6" y="416.3" width="12.2" height="24.65" shape-rendering="crispEdges"/><rect fill="#1e1e1e" x="963.8" y="416.3" width="36.6" height="24.65" shape-rendering="crispEdges"/><rect fill="#1e1e1e" x="1000.4" y="416.3" width="48.8" height="24.65" shape-rendering="crispEdges"/><rect fill="#1e1e1e" x="1049.2" y="416.3" width="12.2" height="24.65" shape-rendering="crispEdges"/><rect fill="#1e1e1e" x="1061.4" y="416.3" width="36.6" height="24.65" shape-rendering="crispEdges"/><rect fill="#1e1e1e" x="1098" y="416.3" width="24.4" height="24.65" shape-rendering="crispEdges"/><rect fill="#1e1e1e" x="1122.4" y="416.3" width="61" height="24.65" shape-rendering="crispEdges"/><rect fill="#1e1e1e" x="1183.4" y="416.3" width="73.2" height="24.65" shape-rendering="crispEdges"/><rect fill="#1e1e1e" x="1256.6" y="416.3" width="12.2" height="24.65" shape-rendering="crispEdges"/><rect fill="#1e1e1e" x="1268.8" y="416.3" width="12.2" height="24.65" shape-rendering="crispEdges"/><rect fill="#161616" x="1281" y="416.3" width="183" height="24.65" shape-rendering="crispEdges"/><rect fill="#0a263a" x="0" y="440.7" width="73.2" height="24.65" shape-rendering="crispEdges"/><rect fill="#0d2231" x="73.2" y="440.7" width="109.8" height="24.65" shape-rendering="crispEdges"/><rect fill="#1e1e1e" x="183" y="440.7" width="12.2" height="24.65" shape-rendering="crispEdges"/><rect fill="#1e1e1e" x="195.2" y="440.7" width="12.2" height="24.65" shape-rendering="crispEdges"/><rect fill="#1e1e1e" x="207.4" y="440.7" width="48.8" height="24.65" shape-rendering="crispEdges"/><rect fill="#1e1e1e" x="256.2" y="440.7" width="207.4" height="24.65" shape-rendering="crispEdges"/><rect fill="#1e1e1e" x="463.6" y="440.7" width="73.2" height="24.65" shape-rendering="crispEdges"/><rect fill="#1e1e1e" x="536.8" y="440.7" width="12.2" height="24.65" shape-rendering="crispEdges"/><rect fill="#1e1e1e" x="549" y="440.7" width="12.2" height="24.65" shape-rendering="crispEdges"/><rect fill="#1e1e1e" x="561.2" y="440.7" width="390.4" height="24.65" shape-rendering="crispEdges"/><rect fill="#1e1e1e" x="951.6" y="440.7" width="12.2" height="24.65" shape-rendering="crispEdges"/><rect fill="#1e1e1e" x="963.8" y="440.7" width="36.6" height="24.65" shape-rendering="crispEdges"/><rect fill="#1e1e1e" x="1000.4" y="440.7" width="48.8" height="24.65" shape-rendering="crispEdges"/><rect fill="#1e1e1e" x="1049.2" y="440.7" width="24.4" height="24.65" shape-rendering="crispEdges"/><rect fill="#1e1e1e" x="1073.6" y="440.7" width="24.4" height="24.65" shape-rendering="crispEdges"/><rect fill="#1e1e1e" x="1098" y="440.7" width="73.2" height="24.65" shape-rendering="crispEdges"/><rect fill="#1e1e1e" x="1171.2" y="440.7" width="12.2" height="24.65" shape-rendering="crispEdges"/><rect fill="#1e1e1e" x="1183.4" y="440.7" width="73.2" height="24.65" shape-rendering="crispEdges"/><rect fill="#1e1e1e" x="1256.6" y="440.7" width="12.2" height="24.65" shape-rendering="crispEdges"/><rect fill="#1e1e1e" x="1268.8" y="440.7" width="12.2" height="24.65" shape-rendering="crispEdges"/><rect fill="#0d2231" x="1281" y="440.7" width="183" height="24.65" shape-rendering="crispEdges"/><rect fill="#161616" x="0" y="465.1" width="183" height="24.65" shape-rendering="crispEdges"/><rect fill="#1e1e1e" x="183" y="465.1" width="12.2" height="24.65" shape-rendering="crispEdges"/><rect fill="#1e1e1e" x="195.2" y="465.1" width="0" height="24.65" shape-rendering="crispEdges"/><rect fill="#1e1e1e" x="195.2" y="465.1" width="1049.2" height="24.65" shape-rendering="crispEdges"/><rect fill="#1e1e1e" x="1244.4" y="465.1" width="24.4" height="24.65" shape-rendering="crispEdges"/><rect fill="#1e1e1e" x="1268.8" y="465.1" width="12.2" height="24.65" shape-rendering="crispEdges"/><rect fill="#161616" x="1281" y="465.1" width="183" height="24.65" shape-rendering="crispEdges"/><rect fill="#161616" x="0" y="489.5" width="183" height="24.65" shape-rendering="crispEdges"/><rect fill="#1e1e1e" x="183" y="489.5" width="12.2" height="24.65" shape-rendering="crispEdges"/><rect fill="#1e1e1e" x="195.2" y="489.5" width="12.2" height="24.65" shape-rendering="crispEdges"/><rect fill="#004578" x="207.4" y="489.5" width="195.2" height="24.65" shape-rendering="crispEdges"/><rect fill="#1e1e1e" x="402.6" y="489.5" width="12.2" height="24.65" shape-rendering="crispEdges"/><rect fill="#24292f" x="414.8" y="489.5" width="195.2" height="24.65" shape-rendering="crispEdges"/><rect fill="#1e1e1e" x="610" y="489.5" width="634.4" height="24.65" shape-rendering="crispEdges"/><rect fill="#1e1e1e" x="1244.4" y="489.5" width="24.4" height="24.65" shape-rendering="crispEdges"/><rect fill="#1e1e1e" x="1268.8" y="489.5" width="12.2" height="24.65" shape-rendering="crispEdges"/><rect fill="#161616" x="1281" y="489.5" width="183" height="24.65" shape-rendering="crispEdges"/><rect fill="#161616" x="0" y="513.9" width="183" height="24.65" shape-rendering="crispEdges"/><rect fill="#1e1e1e" x="183" y="513.9" width="12.2" height="24.65" shape-rendering="crispEdges"/><rect fill="#1e1e1e" x="195.2" y="513.9" width="12.2" height="24.65" shape-rendering="crispEdges"/><rect fill="#004578" x="207.4" y="513.9" width="61" height="24.65" shape-rendering="crispEdges"/><rect fill="#004578" x="268.4" y="513.9" width="12.2" height="24.65" shape-rendering="crispEdges"/><rect fill="#004578" x="280.6" y="513.9" width="36.6" height="24.65" shape-rendering="crispEdges"/><rect fill="#004578" x="317.2" y="513.9" width="12.2" height="24.65" shape-rendering="crispEdges"/><rect fill="#004578" x="329.4" y="513.9" width="73.2" height="24.65" shape-rendering="crispEdges"/><rect fill="#1e1e1e" x="402.6" y="513.9" width="12.2" height="24.65" shape-rendering="crispEdges"/><rect fill="#24292f" x="414.8" y="513.9" width="48.8" height="24.65" shape-rendering="crispEdges"/><rect fill="#24292f" x="463.6" y="513.9" width="12.2" height="24.65" shape-rendering="crispEdges"/><rect fill="#24292f" x="475.8" y="513.9" width="73.2" height="24.65" shape-rendering="crispEdges"/><rect fill="#24292f" x="549" y="513.9" width="12.2" height="24.65" shape-rendering="crispEdges"/><rect fill="#24292f" x="561.2" y="513.9" width="48.8" height="24.65" shape-rendering="crispEdges"/><rect fill="#1e1e1e" x="610" y="513.9" width="634.4" height="24.65" shape-rendering="crispEdges"/><rect fill="#1e1e1e" x="1244.4" y="513.9" width="24.4" height="24.65" shape-rendering="crispEdges"/><rect fill="#1e1e1e" x="1268.8" y="513.9" width="12.2" height="24.65" shape-rendering="crispEdges"/><rect fill="#161616" x="1281" y="513.9" width="183" height="24.65" shape-rendering="crispEdges"/><rect fill="#161616" x="0" y="538.3" width="183" height="24.65" shape-rendering="crispEdges"/><rect fill="#1e1e1e" x="183" y="538.3" width="12.2" height="24.65" shape-rendering="crispEdges"/><rect fill="#1e1e1e" x="195.2" y="538.3" width="12.2" height="24.65" shape-rendering="crispEdges"/><rect fill="#004578" x="207.4" y="538.3" width="195.2" height="24.65" shape-rendering="crispEdges"/><rect fill="#1e1e1e" x="402.6" y="538.3" width="12.2" height="24.65" shape-rendering="crispEdges"/><rect fill="#24292f" x="414.8" y="538.3" width="195.2" height="24.65" shape-rendering="crispEdges"/><rect fill="#1e1e1e" x="610" y="538.3" width="634.4" height="24.65" shape-rendering="crispEdges"/><rect fill="#1e1e1e" x="1244.4" y="538.3" width="24.4" height="24.65" shape-rendering="crispEdges"/><rect fill="#1e1e1e" x="1268.8" y="538.3" width="12.2" height="24.65" shape-rendering="crispEdges"/><rect fill="#161616" x="1281" y="538.3" width="183" height="24.65" shape-rendering="crispEdges"/><rect fill="#161616" x="0" y="562.7" width="183" height="24.65" shape-rendering="crispEdges"/><rect fill="#1e1e1e" x="183" y="562.7" width="12.2" height="24.65" shape-rendering="crispEdges"/><rect fill="#1e1e1e" x="195.2" y="562.7" width="1049.2" height="24.65" shape-rendering="crispEdges"/><rect fill="#1e1e1e" x="1244.4" y="562.7" width="24.4" height="24.65" shape-rendering="crispEdges"/><rect fill="#1e1e1e" x="1268.8" y="562.7" width="12.2" height="24.65" shape-rendering="crispEdges"/><rect fill="#161616" x="1281" y="562.7" width="183" height="24.65" shape-rendering="crispEdges"/><rect fill="#161616" x="0" y="587.1" width="183" height="24.65" shape-rendering="crispEdges"/><rect fill="#1e1e1e" x="183" y="587.1" width="12.2" height="24.65" shape-rendering="crispEdges"/><rect fill="#1e1e1e" x="195.2" y="587.1" width="1073.6" height="24.65" shape-rendering="crispEdges"/><rect fill="#1e1e1e" x="1268.8" y="587.1" width="12.2" height="24.65" shape-rendering="crispEdges"/><rect fill="#161616" x="1281" y="587.1" width="183" height="24.65" shape-rendering="crispEdges"/><rect fill="#161616" x="0" y="611.5" width="1464" height="24.65" shape-rendering="crispEdges"/><rect fill="#161616" x="0" y="635.9" width="1464" height="24.65" shape-rendering="crispEdges"/><rect fill="#161616" x="0" y="660.3" width="1464" height="24.65" shape-rendering="crispEdges"/><rect fill="#161616" x="0" y="684.7" width="1464" height="24.65" shape-rendering="crispEdges"/><rect fill="#161616" x="0" y="709.1" width="1464" height="24.65" shape-rendering="crispEdges"/><rect fill="#161616" x="0" y="733.5" width="1464" height="24.65" shape-rendering="crispEdges"/><rect fill="#161616" x="0" y="757.9" width="1464" height="24.65" shape-rendering="crispEdges"/><rect fill="#161616" x="0" y="782.3" width="1464" height="24.65" shape-rendering="crispEdges"/><rect fill="#161616" x="0" y="806.7" width="1464" height="24.65" shape-rendering="crispEdges"/><rect fill="#161616" x="0" y="831.1" width="1464" height="24.65" shape-rendering="crispEdges"/><rect fill="#161616" x="0" y="855.5" width="1464" height="24.65" shape-rendering="crispEdges"/><rect fill="#161616" x="0" y="879.9" width="1464" height="24.65" shape-rendering="crispEdges"/><rect fill="#161616" x="0" y="904.3" width="1464" height="24.65" shape-rendering="crispEdges"/><rect fill="#161616" x="0" y="928.7" width="536.8" height="24.65" shape-rendering="crispEdges"/><rect fill="#161616" x="536.8" y="928.7" width="390.4" height="24.65" shape-rendering="crispEdges"/><rect fill="#161616" x="927.2" y="928.7" width="536.8" height="24.65" shape-rendering="crispEdges"/><rect fill="#0a2c4e" x="0" y="953.1" width="36.6" height="24.65" shape-rendering="crispEdges"/><rect fill="#0b3a5f" x="36.6" y="953.1" width="219.6" height="24.65" shape-rendering="crispEdges"/><rect fill="#0a2c4e" x="256.2" y="953.1" width="36.6" height="24.65" shape-rendering="crispEdges"/><rect fill="#0b3a5f" x="292.8" y="953.1" width="207.4" height="24.65" shape-rendering="crispEdges"/><rect fill="#0a2c4e" x="500.2" y="953.1" width="36.6" height="24.65" shape-rendering="crispEdges"/><rect fill="#0b3a5f" x="536.8" y="953.1" width="85.4" height="24.65" shape-rendering="crispEdges"/><rect fill="#0a2c4e" x="622.2" y="953.1" width="36.6" height="24.65" shape-rendering="crispEdges"/><rect fill="#0b3a5f" x="658.8" y="953.1" width="158.6" height="24.65" shape-rendering="crispEdges"/><rect fill="#0a2c4e" x="817.4" y="953.1" width="36.6" height="24.65" shape-rendering="crispEdges"/><rect fill="#0b3a5f" x="854" y="953.1" width="158.6" height="24.65" shape-rendering="crispEdges"/><rect fill="#0b3a5f" x="1012.6" y="953.1" width="451.4" height="24.65" shape-rendering="crispEdges"/>
    <g class="terminal-1864339272-matrix">
    <text class="terminal-1864339272-r2" x="12.2" y="20" textLength="12.2" clip-path="url(#terminal-1864339272-line-0)">⭘</text><text class="terminal-1864339272-r2" x="671" y="20" textLength="97.6" clip-path="url(#terminal-1864339272-line-0)">OlaPilot</text><text class="terminal-1864339272-r3" x="1464" y="20" textLength="12.2" clip-path="url(#terminal-1864339272-line-0)">
</text><text class="terminal-1864339272-r4" x="0" y="44.4" textLength="61" clip-path="url(#terminal-1864339272-line-1)">DMX&#160;1</text><text class="terminal-1864339272-r3" x="1464" y="44.4" textLength="12.2" clip-path="url(#terminal-1864339272-line-1)">
</text><text class="terminal-1864339272-r4" x="0" y="68.8" textLength="1464" clip-path="url(#terminal-1864339272-line-2)">00&#160;00&#160;00&#160;00&#160;00&#160;00&#160;00&#160;00&#160;00&#160;00&#160;00&#160;00&#160;00&#160;00&#160;00&#160;00&#160;00&#160;00&#160;00&#160;00&#160;00&#160;00&#160;00&#160;00&#160;00&#160;00&#160;00&#160;00&#160;00&#160;00&#160;00&#160;00&#160;00&#160;00&#160;00&#160;00&#160;00&#160;00&#160;00&#160;00&#160;</text><text class="terminal-1864339272-r3" x="1464" y="68.8" textLength="12.2" clip-path="url(#terminal-1864339272-line-2)">
</text><text class="terminal-1864339272-r4" x="0" y="93.2" textLength="1464" clip-path="url(#terminal-1864339272-line-3)">00&#160;00&#160;00&#160;00&#160;00&#160;00&#160;00&#160;00&#160;00&#160;00&#160;00&#160;7f&#160;00&#160;00&#160;00&#160;00&#160;00&#160;00&#160;00&#160;00&#160;00&#160;00&#160;00&#160;00&#160;00&#160;00&#160;00&#160;00&#160;00&#160;00&#160;00&#160;00&#160;00&#160;00&#160;00&#160;00&#160;00&#160;00&#160;00&#160;00&#160;</text><text class="terminal-1864339272-r3" x="1464" y="93.2" textLength="12.2" clip-path="url(#terminal-1864339272-line-3)">
</text><text class="terminal-1864339272-r4" x="0" y="117.6" textLength="1464" clip-path="url(#terminal-1864339272-line-4)">00&#160;00&#160;00&#160;00&#160;00&#160;00&#160;00&#160;00&#160;00&#160;00&#160;00&#160;00&#160;00&#160;00&#160;00&#160;00&#160;00&#160;00&#160;00&#160;00&#160;00&#160;00&#160;00&#160;00&#160;00&#160;00&#160;00&#160;00&#160;00&#160;00&#160;00&#160;00&#160;00&#160;00&#160;00&#160;00&#160;00&#160;00&#160;00&#160;00&#160;</text><text class="terminal-1864339272-r3" x="1464" y="117.6" textLength="12.2" clip-path="url(#terminal-1864339272-line-4)">
</text><text class="terminal-1864339272-r4" x="0" y="142" textLength="1464" clip-path="url(#terminal-1864339272-line-5)">00&#160;00&#160;00&#160;00&#160;00&#160;00&#160;00&#160;00&#160;00&#160;00&#160;00&#160;00&#160;00&#160;00&#160;00&#160;00&#160;00&#160;00&#160;00&#160;00&#160;00&#160;00&#160;00&#160;00&#160;00&#160;00&#160;00&#160;00&#160;00&#160;00&#160;00&#160;00&#160;00&#160;00&#160;00&#160;00&#160;00&#160;00&#160;00&#160;00&#160;</text><text class="terminal-1864339272-r3" x="1464" y="142" textLength="12.2" clip-path="url(#terminal-1864339272-line-5)">
</text><text class="terminal-1864339272-r4" x="0" y="166.4" textLength="1464" clip-path="url(#terminal-1864339272-line-6)">00&#160;00&#160;00&#160;00&#160;00&#160;00&#160;00&#160;00&#160;00&#160;00&#160;00&#160;00&#160;00&#160;00&#160;00&#160;00&#160;00&#160;00&#160;00&#160;00&#160;00&#160;00&#160;00&#160;00&#160;00&#160;00&#160;00&#160;00&#160;00&#160;00&#160;00&#160;00&#160;00&#160;00&#160;00&#160;00&#160;00&#160;00&#160;00&#160;00&#160;</text><text class="terminal-1864339272-r3" x="1464" y="166.4" textLength="12.2" clip-path="url(#terminal-1864339272-line-6)">
</text><text class="terminal-1864339272-r4" x="0" y="190.8" textLength="1464" clip-path="url(#terminal-1864339272-line-7)">00&#160;00&#160;00&#160;00&#160;00&#160;00&#160;00&#160;00&#160;00&#160;00&#160;00&#160;00&#160;00&#160;00&#160;00&#160;00&#160;00&#160;00&#160;00&#160;00&#160;00&#160;00&#160;00&#160;00&#160;00&#160;00&#160;00&#160;00&#160;00&#160;00&#160;00&#160;00&#160;00&#160;00&#160;00&#160;00&#160;00&#160;00&#160;00&#160;00&#160;</text><text class="terminal-1864339272-r3" x="1464" y="190.8" textLength="12.2" clip-path="url(#terminal-1864339272-line-7)">
</text><text class="terminal-1864339272-r4" x="0" y="215.2" textLength="1464" clip-path="url(#terminal-1864339272-line-8)">00&#160;00&#160;00&#160;00&#160;00&#160;00&#160;00&#160;00&#160;00&#160;00&#160;00&#160;00&#160;00&#160;00&#160;00&#160;00&#160;00&#160;00&#160;00&#160;00&#160;00&#160;00&#160;00&#160;00&#160;00&#160;00&#160;00&#160;00&#160;00&#160;00&#160;00&#160;00&#160;00&#160;00&#160;00&#160;00&#160;00&#160;00&#160;00&#160;00&#160;</text><text class="terminal-1864339272-r3" x="1464" y="215.2" textLength="12.2" clip-path="url(#terminal-1864339272-line-8)">
</text><text class="terminal-1864339272-r4" x="0" y="239.6" textLength="1464" clip-path="url(#terminal-1864339272-line-9)">00&#160;00&#160;00&#160;00&#160;00&#160;00&#160;00&#160;00&#160;00&#160;00&#160;00&#160;00&#160;00&#160;00&#160;00&#160;00&#160;00&#160;00&#160;00&#160;00&#160;00&#160;00&#160;00&#160;00&#160;00&#160;00&#160;00&#160;00&#160;00&#160;00&#160;00&#160;00&#160;00&#160;00&#160;00&#160;00&#160;00&#160;00&#160;00&#160;00&#160;</text><text class="terminal-1864339272-r3" x="1464" y="239.6" textLength="12.2" clip-path="url(#terminal-1864339272-line-9)">
</text><text class="terminal-1864339272-r4" x="0" y="264" textLength="1464" clip-path="url(#terminal-1864339272-line-10)">00&#160;00&#160;00&#160;00&#160;00&#160;00&#160;00&#160;00&#160;00&#160;00&#160;00&#160;00&#160;00&#160;00&#160;00&#160;00&#160;00&#160;00&#160;00&#160;00&#160;00&#160;00&#160;00&#160;00&#160;00&#160;00&#160;00&#160;00&#160;00&#160;00&#160;00&#160;00&#160;00&#160;00&#160;00&#160;00&#160;00&#160;00&#160;00&#160;00&#160;</text><text class="terminal-1864339272-r3" x="1464" y="264" textLength="12.2" clip-path="url(#terminal-1864339272-line-10)">
</text><text class="terminal-1864339272-r4" x="0" y="288.4" textLength="1464" clip-path="url(#terminal-1864339272-line-11)">00&#160;00&#160;00&#160;00&#160;00&#160;00&#160;00&#160;00&#160;00&#160;00&#160;00&#160;00&#160;00&#160;00&#160;00&#160;00&#160;00&#160;00&#160;00&#160;00&#160;00&#160;00&#160;00&#160;00&#160;00&#160;00&#160;00&#160;00&#160;00&#160;00&#160;00&#160;00&#160;00&#160;00&#160;00&#160;00&#160;00&#160;00&#160;00&#160;00&#160;</text><text class="terminal-1864339272-r3" x="1464" y="288.4" textLength="12.2" clip-path="url(#terminal-1864339272-line-11)">
</text><text class="terminal-1864339272-r4" x="0" y="312.8" textLength="1464" clip-path="url(#terminal-1864339272-line-12)">00&#160;00&#160;00&#160;00&#160;00&#160;00&#160;00&#160;00&#160;00&#160;00&#160;00&#160;00&#160;00&#160;00&#160;00&#160;00&#160;00&#160;00&#160;00&#160;00&#160;00&#160;00&#160;00&#160;00&#160;00&#160;00&#160;00&#160;00&#160;00&#160;00&#160;00&#160;00&#160;00&#160;00&#160;00&#160;00&#160;00&#160;00&#160;00&#160;00&#160;</text><text class="terminal-1864339272-r3" x="1464" y="312.8" textLength="12.2" clip-path="url(#terminal-1864339272-line-12)">
</text><text class="terminal-1864339272-r4" x="0" y="337.2" textLength="1464" clip-path="url(#terminal-1864339272-line-13)">00&#160;00&#160;00&#160;00&#160;00&#160;00&#160;00&#160;00&#160;00&#160;00&#160;00&#160;00&#160;00&#160;00&#160;00&#160;00&#160;00&#160;00&#160;00&#160;00&#160;00&#160;00&#160;00&#160;00&#160;00&#160;00&#160;00&#160;00&#160;00&#160;00&#160;00&#160;00&#160;00&#160;00&#160;00&#160;00&#160;00&#160;00&#160;00&#160;00&#160;</text><text class="terminal-1864339272-r3" x="1464" y="337.2" textLength="12.2" clip-path="url(#terminal-1864339272-line-13)">
</text><text class="terminal-1864339272-r4" x="0" y="361.6" textLength="183" clip-path="url(#terminal-1864339272-line-14)">00&#160;00&#160;00&#160;00&#160;00&#160;</text><text class="terminal-1864339272-r5" x="183" y="361.6" textLength="12.2" clip-path="url(#terminal-1864339272-line-14)">┏</text><text class="terminal-1864339272-r5" x="195.2" y="361.6" textLength="12.2" clip-path="url(#terminal-1864339272-line-14)">━</text><text class="terminal-1864339272-r5" x="207.4" y="361.6" textLength="134.2" clip-path="url(#terminal-1864339272-line-14)">&#160;Set&#160;value&#160;</text><text class="terminal-1864339272-r5" x="341.6" y="361.6" textLength="927.2" clip-path="url(#terminal-1864339272-line-14)">━━━━━━━━━━━━━━━━━━━━━━━━━━━━━━━━━━━━━━━━━━━━━━━━━━━━━━━━━━━━━━━━━━━━━━━━━━━━</text><text class="terminal-1864339272-r5" x="1268.8" y="361.6" textLength="12.2" clip-path="url(#terminal-1864339272-line-14)">┓</text><text class="terminal-1864339272-r3" x="1464" y="361.6" textLength="12.2" clip-path="url(#terminal-1864339272-line-14)">
</text><text class="terminal-1864339272-r6" x="0" y="386" textLength="122" clip-path="url(#terminal-1864339272-line-15)">&#160;universe&#160;</text><text class="terminal-1864339272-r6" x="122" y="386" textLength="61" clip-path="url(#terminal-1864339272-line-15)">&#160;base</text><text class="terminal-1864339272-r5" x="183" y="386" textLength="12.2" clip-path="url(#terminal-1864339272-line-15)">┃</text><text class="terminal-1864339272-r7" x="207.4" y="386" textLength="158.6" clip-path="url(#terminal-1864339272-line-15)">Editing&#160;trait</text><text class="terminal-1864339272-r7" x="463.6" y="386" textLength="207.4" clip-path="url(#terminal-1864339272-line-15)">ToyFixture-0.wash</text><text class="terminal-1864339272-r5" x="1268.8" y="386" textLength="12.2" clip-path="url(#terminal-1864339272-line-15)">┃</text><text class="terminal-1864339272-r3" x="1464" y="386" textLength="12.2" clip-path="url(#terminal-1864339272-line-15)">
</text><text class="terminal-1864339272-r4" x="0" y="410.4" textLength="122" clip-path="url(#terminal-1864339272-line-16)">&#160;1&#160;&#160;&#160;&#160;&#160;&#160;&#160;&#160;</text><text class="terminal-1864339272-r4" x="122" y="410.4" textLength="61" clip-path="url(#terminal-1864339272-line-16)">&#160;51&#160;&#160;</text><text class="terminal-1864339272-r5" x="183" y="410.4" textLength="12.2" clip-path="url(#terminal-1864339272-line-16)">┃</text><text class="terminal-1864339272-r7" x="207.4" y="410.4" textLength="36.6" clip-path="url(#terminal-1864339272-line-16)">red</text><text class="terminal-1864339272-r9" x="536.8" y="410.4" textLength="12.2" clip-path="url(#terminal-1864339272-line-16)">0</text><text class="terminal-1864339272-r10" x="561.2" y="410.4" textLength="390.4" clip-path="url(#terminal-1864339272-line-16)">━━━━━━━━━━━━━━━━━━━━━━━━━━━━━━━━</text><text class="terminal-1864339272-r9" x="963.8" y="410.4" textLength="36.6" clip-path="url(#terminal-1864339272-line-16)">255</text><text class="terminal-1864339272-r7" x="1073.6" y="410.4" textLength="24.4" clip-path="url(#terminal-1864339272-line-16)">0%</text><text class="terminal-1864339272-r7" x="1171.2" y="410.4" textLength="12.2" clip-path="url(#terminal-1864339272-line-16)">0</text><text class="terminal-1864339272-r5" x="1268.8" y="410.4" textLength="12.2" clip-path="url(#terminal-1864339272-line-16)">┃</text><text class="terminal-1864339272-r3" x="1464" y="410.4" textLength="12.2" clip-path="url(#terminal-1864339272-line-16)">
</text><text class="terminal-1864339272-r5" x="183" y="434.8" textLength="12.2" clip-path="url(#terminal-1864339272-line-17)">┃</text><text class="terminal-1864339272-r7" x="207.4" y="434.8" textLength="61" clip-path="url(#terminal-1864339272-line-17)">green</text><text class="terminal-1864339272-r9" x="536.8" y="434.8" textLength="12.2" clip-path="url(#terminal-1864339272-line-17)">0</text><text class="terminal-1864339272-r11" x="561.2" y="434.8" textLength="195.2" clip-path="url(#terminal-1864339272-line-17)">━━━━━━━━━━━━━━━━</text><text class="terminal-1864339272-r12" x="756.4" y="434.8" textLength="12.2" clip-path="url(#terminal-1864339272-line-17)">╺</text><text class="terminal-1864339272-r12" x="768.6" y="434.8" textLength="183" clip-path="url(#terminal-1864339272-line-17)">━━━━━━━━━━━━━━━</text><text class="terminal-1864339272-r9" x="963.8" y="434.8" textLength="36.6" clip-path="url(#terminal-1864339272-line-17)">255</text><text class="terminal-1864339272-r7" x="1061.4" y="434.8" textLength="36.6" clip-path="url(#terminal-1864339272-line-17)">50%</text><text class="terminal-1864339272-r7" x="1122.4" y="434.8" textLength="61" clip-path="url(#terminal-1864339272-line-17)">127.5</text><text class="terminal-1864339272-r5" x="1268.8" y="434.8" textLength="12.2" clip-path="url(#terminal-1864339272-line-17)">┃</text><text class="terminal-1864339272-r3" x="1464" y="434.8" textLength="12.2" clip-path="url(#terminal-1864339272-line-17)">
</text><text class="terminal-1864339272-r6" x="0" y="459.2" textLength="73.2" clip-path="url(#terminal-1864339272-line-18)">&#160;name&#160;</text><text class="terminal-1864339272-r5" x="183" y="459.2" textLength="12.2" clip-path="url(#terminal-1864339272-line-18)">┃</text><text class="terminal-1864339272-r7" x="207.4" y="459.2" textLength="48.8" clip-path="url(#terminal-1864339272-line-18)">blue</text><text class="terminal-1864339272-r9" x="536.8" y="459.2" textLength="12.2" clip-path="url(#terminal-1864339272-line-18)">0</text><text class="terminal-1864339272-r10" x="561.2" y="459.2" textLength="390.4" clip-path="url(#terminal-1864339272-line-18)">━━━━━━━━━━━━━━━━━━━━━━━━━━━━━━━━</text><text class="terminal-1864339272-r9" x="963.8" y="459.2" textLength="36.6" clip-path="url(#terminal-1864339272-line-18)">255</text><text class="terminal-1864339272-r7" x="1073.6" y="459.2" textLength="24.4" clip-path="url(#terminal-1864339272-line-18)">0%</text><text class="terminal-1864339272-r7" x="1171.2" y="459.2" textLength="12.2" clip-path="url(#terminal-1864339272-line-18)">0</text><text class="terminal-1864339272-r5" x="1268.8" y="459.2" textLength="12.2" clip-path="url(#terminal-1864339272-line-18)">┃</text><text class="terminal-1864339272-r3" x="1464" y="459.2" textLength="12.2" clip-path="url(#terminal-1864339272-line-18)">
</text><text class="terminal-1864339272-r5" x="183" y="483.6" textLength="12.2" clip-path="url(#terminal-1864339272-line-19)">┃</text><text class="terminal-1864339272-r5" x="1268.8" y="483.6" textLength="12.2" clip-path="url(#terminal-1864339272-line-19)">┃</text><text class="terminal-1864339272-r3" x="1464" y="483.6" textLength="12.2" clip-path="url(#terminal-1864339272-line-19)">
</text><text class="terminal-1864339272-r5" x="183" y="508" textLength="12.2" clip-path="url(#terminal-1864339272-line-20)">┃</text><text class="terminal-1864339272-r13" x="207.4" y="508" textLength="195.2" clip-path="url(#terminal-1864339272-line-20)">▔▔▔▔▔▔▔▔▔▔▔▔▔▔▔▔</text><text class="terminal-1864339272-r14" x="414.8" y="508" textLength="195.2" clip-path="url(#terminal-1864339272-line-20)">▔▔▔▔▔▔▔▔▔▔▔▔▔▔▔▔</text><text class="terminal-1864339272-r5" x="1268.8" y="508" textLength="12.2" clip-path="url(#terminal-1864339272-line-20)">┃</text><text class="terminal-1864339272-r3" x="1464" y="508" textLength="12.2" clip-path="url(#terminal-1864339272-line-20)">
</text><text class="terminal-1864339272-r5" x="183" y="532.4" textLength="12.2" clip-path="url(#terminal-1864339272-line-21)">┃</text><text class="terminal-1864339272-r15" x="280.6" y="532.4" textLength="36.6" clip-path="url(#terminal-1864339272-line-21)">Set</text><text class="terminal-1864339272-r16" x="475.8" y="532.4" textLength="73.2" clip-path="url(#terminal-1864339272-line-21)">Cancel</text><text class="terminal-1864339272-r5" x="1268.8" y="532.4" textLength="12.2" clip-path="url(#terminal-1864339272-line-21)">┃</text><text class="terminal-1864339272-r3" x="1464" y="532.4" textLength="12.2" clip-path="url(#terminal-1864339272-line-21)">
</text><text class="terminal-1864339272-r5" x="183" y="556.8" textLength="12.2" clip-path="url(#terminal-1864339272-line-22)">┃</text><text class="terminal-1864339272-r17" x="207.4" y="556.8" textLength="195.2" clip-path="url(#terminal-1864339272-line-22)">▁▁▁▁▁▁▁▁▁▁▁▁▁▁▁▁</text><text class="terminal-1864339272-r18" x="414.8" y="556.8" textLength="195.2" clip-path="url(#terminal-1864339272-line-22)">▁▁▁▁▁▁▁▁▁▁▁▁▁▁▁▁</text><text class="terminal-1864339272-r5" x="1268.8" y="556.8" textLength="12.2" clip-path="url(#terminal-1864339272-line-22)">┃</text><text class="terminal-1864339272-r3" x="1464" y="556.8" textLength="12.2" clip-path="url(#terminal-1864339272-line-22)">
</text><text class="terminal-1864339272-r5" x="183" y="581.2" textLength="12.2" clip-path="url(#terminal-1864339272-line-23)">┃</text><text class="terminal-1864339272-r5" x="1268.8" y="581.2" textLength="12.2" clip-path="url(#terminal-1864339272-line-23)">┃</text><text class="terminal-1864339272-r3" x="1464" y="581.2" textLength="12.2" clip-path="url(#terminal-1864339272-line-23)">
</text><text class="terminal-1864339272-r5" x="183" y="605.6" textLength="12.2" clip-path="url(#terminal-1864339272-line-24)">┗</text><text class="terminal-1864339272-r5" x="195.2" y="605.6" textLength="1073.6" clip-path="url(#terminal-1864339272-line-24)">━━━━━━━━━━━━━━━━━━━━━━━━━━━━━━━━━━━━━━━━━━━━━━━━━━━━━━━━━━━━━━━━━━━━━━━━━━━━━━━━━━━━━━━━</text><text class="terminal-1864339272-r5" x="1268.8" y="605.6" textLength="12.2" clip-path="url(#terminal-1864339272-line-24)">┛</text><text class="terminal-1864339272-r3" x="1464" y="605.6" textLength="12.2" clip-path="url(#terminal-1864339272-line-24)">
</text><text class="terminal-1864339272-r3" x="1464" y="630" textLength="12.2" clip-path="url(#terminal-1864339272-line-25)">
</text><text class="terminal-1864339272-r3" x="1464" y="654.4" textLength="12.2" clip-path="url(#terminal-1864339272-line-26)">
</text><text class="terminal-1864339272-r3" x="1464" y="678.8" textLength="12.2" clip-path="url(#terminal-1864339272-line-27)">
</text><text class="terminal-1864339272-r3" x="1464" y="703.2" textLength="12.2" clip-path="url(#terminal-1864339272-line-28)">
</text><text class="terminal-1864339272-r3" x="1464" y="727.6" textLength="12.2" clip-path="url(#terminal-1864339272-line-29)">
</text><text class="terminal-1864339272-r3" x="1464" y="752" textLength="12.2" clip-path="url(#terminal-1864339272-line-30)">
</text><text class="terminal-1864339272-r3" x="1464" y="776.4" textLength="12.2" clip-path="url(#terminal-1864339272-line-31)">
</text><text class="terminal-1864339272-r3" x="1464" y="800.8" textLength="12.2" clip-path="url(#terminal-1864339272-line-32)">
</text><text class="terminal-1864339272-r3" x="1464" y="825.2" textLength="12.2" clip-path="url(#terminal-1864339272-line-33)">
</text><text class="terminal-1864339272-r3" x="1464" y="849.6" textLength="12.2" clip-path="url(#terminal-1864339272-line-34)">
</text><text class="terminal-1864339272-r3" x="1464" y="874" textLength="12.2" clip-path="url(#terminal-1864339272-line-35)">
</text><text class="terminal-1864339272-r3" x="1464" y="898.4" textLength="12.2" clip-path="url(#terminal-1864339272-line-36)">
</text><text class="terminal-1864339272-r3" x="1464" y="922.8" textLength="12.2" clip-path="url(#terminal-1864339272-line-37)">
</text><text class="terminal-1864339272-r19" x="536.8" y="947.2" textLength="390.4" clip-path="url(#terminal-1864339272-line-38)">Showtime&#160;00:00:01.04&#160;fps&#160;29/40&#160;&#160;</text><text class="terminal-1864339272-r3" x="1464" y="947.2" textLength="12.2" clip-path="url(#terminal-1864339272-line-38)">
</text><text class="terminal-1864339272-r20" x="0" y="971.6" textLength="36.6" clip-path="url(#terminal-1864339272-line-39)">&#160;D&#160;</text><text class="terminal-1864339272-r21" x="36.6" y="971.6" textLength="219.6" clip-path="url(#terminal-1864339272-line-39)">&#160;Toggle&#160;dark&#160;mode&#160;</text><text class="terminal-1864339272-r20" x="256.2" y="971.6" textLength="36.6" clip-path="url(#terminal-1864339272-line-39)">&#160;B&#160;</text><text class="terminal-1864339272-r21" x="292.8" y="971.6" textLength="207.4" clip-path="url(#terminal-1864339272-line-39)">&#160;Toggle&#160;blackout&#160;</text><text class="terminal-1864339272-r20" x="500.2" y="971.6" textLength="36.6" clip-path="url(#terminal-1864339272-line-39)">&#160;Q&#160;</text><text class="terminal-1864339272-r21" x="536.8" y="971.6" textLength="85.4" clip-path="url(#terminal-1864339272-line-39)">&#160;Quit?&#160;</text><text class="terminal-1864339272-r20" x="622.2" y="971.6" textLength="36.6" clip-path="url(#terminal-1864339272-line-39)">&#160;S&#160;</text><text class="terminal-1864339272-r21" x="658.8" y="971.6" textLength="158.6" clip-path="url(#terminal-1864339272-line-39)">&#160;Save&#160;preset&#160;</text><text class="terminal-1864339272-r20" x="817.4" y="971.6" textLength="36.6" clip-path="url(#terminal-1864339272-line-39)">&#160;L&#160;</text><text class="terminal-1864339272-r21" x="854" y="971.6" textLength="158.6" clip-path="url(#terminal-1864339272-line-39)">&#160;Load&#160;preset&#160;</text>
    </g>
    </g>
</svg>
